G75*
G70*
%OFA0B0*%
%FSLAX24Y24*%
%IPPOS*%
%LPD*%
%AMOC8*
5,1,8,0,0,1.08239X$1,22.5*
%
%ADD10C,0.0000*%
D10*
X000180Y016180D02*
X000199Y016965D01*
X000257Y017748D01*
X000353Y018528D01*
X000487Y019301D01*
X000659Y020068D01*
X000869Y020825D01*
X001115Y021570D01*
X001398Y022303D01*
X001716Y023021D01*
X002069Y023722D01*
X002456Y024406D01*
X002876Y025069D01*
X003329Y025711D01*
X003812Y026330D01*
X004325Y026925D01*
X004866Y027494D01*
X005435Y028035D01*
X006030Y028548D01*
X006649Y029031D01*
X007291Y029484D01*
X007954Y029904D01*
X008638Y030291D01*
X009339Y030644D01*
X010057Y030962D01*
X010790Y031245D01*
X011535Y031491D01*
X012292Y031701D01*
X013059Y031873D01*
X013832Y032007D01*
X014612Y032103D01*
X015395Y032161D01*
X016180Y032180D01*
X016965Y032161D01*
X017748Y032103D01*
X018528Y032007D01*
X019301Y031873D01*
X020068Y031701D01*
X020825Y031491D01*
X021570Y031245D01*
X022303Y030962D01*
X023021Y030644D01*
X023722Y030291D01*
X024406Y029904D01*
X025069Y029484D01*
X025711Y029031D01*
X026330Y028548D01*
X026925Y028035D01*
X027494Y027494D01*
X028035Y026925D01*
X028548Y026330D01*
X029031Y025711D01*
X029484Y025069D01*
X029904Y024406D01*
X030291Y023722D01*
X030644Y023021D01*
X030962Y022303D01*
X031245Y021570D01*
X031491Y020825D01*
X031701Y020068D01*
X031873Y019301D01*
X032007Y018528D01*
X032103Y017748D01*
X032161Y016965D01*
X032180Y016180D01*
X032161Y015395D01*
X032103Y014612D01*
X032007Y013832D01*
X031873Y013059D01*
X031701Y012292D01*
X031491Y011535D01*
X031245Y010790D01*
X030962Y010057D01*
X030644Y009339D01*
X030291Y008638D01*
X029904Y007954D01*
X029484Y007291D01*
X029031Y006649D01*
X028548Y006030D01*
X028035Y005435D01*
X027494Y004866D01*
X026925Y004325D01*
X026330Y003812D01*
X025711Y003329D01*
X025069Y002876D01*
X024406Y002456D01*
X023722Y002069D01*
X023021Y001716D01*
X022303Y001398D01*
X021570Y001115D01*
X020825Y000869D01*
X020068Y000659D01*
X019301Y000487D01*
X018528Y000353D01*
X017748Y000257D01*
X016965Y000199D01*
X016180Y000180D01*
X015395Y000199D01*
X014612Y000257D01*
X013832Y000353D01*
X013059Y000487D01*
X012292Y000659D01*
X011535Y000869D01*
X010790Y001115D01*
X010057Y001398D01*
X009339Y001716D01*
X008638Y002069D01*
X007954Y002456D01*
X007291Y002876D01*
X006649Y003329D01*
X006030Y003812D01*
X005435Y004325D01*
X004866Y004866D01*
X004325Y005435D01*
X003812Y006030D01*
X003329Y006649D01*
X002876Y007291D01*
X002456Y007954D01*
X002069Y008638D01*
X001716Y009339D01*
X001398Y010057D01*
X001115Y010790D01*
X000869Y011535D01*
X000659Y012292D01*
X000487Y013059D01*
X000353Y013832D01*
X000257Y014612D01*
X000199Y015395D01*
X000180Y016180D01*
M02*
