%
M48
M72
T01C0.0320
T02C0.0400
T03C0.1260
%
T01
X10280Y10780
X11280Y10780
X13780Y12580
X12180Y14680
X14680Y15680
X14680Y16680
X14680Y17680
X14680Y18680
X12180Y17680
X12180Y21380
X11180Y21380
X8680Y16180
X7680Y16180
X16780Y12580
X17680Y15680
X17680Y16680
X17680Y17680
X17680Y18680
X20280Y18580
X20280Y17580
X20280Y14680
X20280Y13680
X20180Y10780
X21180Y10780
X23680Y16180
X24680Y16180
X21180Y21380
X20180Y21380
T02
X17680Y24580
X16680Y24580
X16780Y10080
X15780Y10080
T03
X7680Y9980
X7680Y11680
X24580Y11680
X24580Y9980
M30
