G75*
G70*
%OFA0B0*%
%FSLAX24Y24*%
%IPPOS*%
%LPD*%
%AMOC8*
5,1,8,0,0,1.08239X$1,22.5*
%
%ADD10C,0.0000*%
D10*
X000250Y000250D02*
X000250Y007746D01*
X006120Y007746D01*
X006120Y000250D01*
X000250Y000250D01*
X002207Y005750D02*
X002209Y005776D01*
X002215Y005802D01*
X002225Y005827D01*
X002238Y005850D01*
X002254Y005870D01*
X002274Y005888D01*
X002296Y005903D01*
X002319Y005915D01*
X002345Y005923D01*
X002371Y005927D01*
X002397Y005927D01*
X002423Y005923D01*
X002449Y005915D01*
X002473Y005903D01*
X002494Y005888D01*
X002514Y005870D01*
X002530Y005850D01*
X002543Y005827D01*
X002553Y005802D01*
X002559Y005776D01*
X002561Y005750D01*
X002559Y005724D01*
X002553Y005698D01*
X002543Y005673D01*
X002530Y005650D01*
X002514Y005630D01*
X002494Y005612D01*
X002472Y005597D01*
X002449Y005585D01*
X002423Y005577D01*
X002397Y005573D01*
X002371Y005573D01*
X002345Y005577D01*
X002319Y005585D01*
X002295Y005597D01*
X002274Y005612D01*
X002254Y005630D01*
X002238Y005650D01*
X002225Y005673D01*
X002215Y005698D01*
X002209Y005724D01*
X002207Y005750D01*
X003939Y005750D02*
X003941Y005776D01*
X003947Y005802D01*
X003957Y005827D01*
X003970Y005850D01*
X003986Y005870D01*
X004006Y005888D01*
X004028Y005903D01*
X004051Y005915D01*
X004077Y005923D01*
X004103Y005927D01*
X004129Y005927D01*
X004155Y005923D01*
X004181Y005915D01*
X004205Y005903D01*
X004226Y005888D01*
X004246Y005870D01*
X004262Y005850D01*
X004275Y005827D01*
X004285Y005802D01*
X004291Y005776D01*
X004293Y005750D01*
X004291Y005724D01*
X004285Y005698D01*
X004275Y005673D01*
X004262Y005650D01*
X004246Y005630D01*
X004226Y005612D01*
X004204Y005597D01*
X004181Y005585D01*
X004155Y005577D01*
X004129Y005573D01*
X004103Y005573D01*
X004077Y005577D01*
X004051Y005585D01*
X004027Y005597D01*
X004006Y005612D01*
X003986Y005630D01*
X003970Y005650D01*
X003957Y005673D01*
X003947Y005698D01*
X003941Y005724D01*
X003939Y005750D01*
M02*
