G75*
G70*
%OFA0B0*%
%FSLAX24Y24*%
%IPPOS*%
%LPD*%
%AMOC8*
5,1,8,0,0,1.08239X$1,22.5*
%
%ADD10C,0.0000*%
%ADD11C,0.0040*%
%ADD12C,0.0050*%
%ADD13C,0.0020*%
%ADD14C,0.0080*%
%ADD15R,0.0200X0.0200*%
D10*
X000250Y000250D02*
X000250Y007746D01*
X006120Y007746D01*
X006120Y000250D01*
X000250Y000250D01*
X002207Y005750D02*
X002209Y005776D01*
X002215Y005802D01*
X002225Y005827D01*
X002238Y005850D01*
X002254Y005870D01*
X002274Y005888D01*
X002296Y005903D01*
X002319Y005915D01*
X002345Y005923D01*
X002371Y005927D01*
X002397Y005927D01*
X002423Y005923D01*
X002449Y005915D01*
X002473Y005903D01*
X002494Y005888D01*
X002514Y005870D01*
X002530Y005850D01*
X002543Y005827D01*
X002553Y005802D01*
X002559Y005776D01*
X002561Y005750D01*
X002559Y005724D01*
X002553Y005698D01*
X002543Y005673D01*
X002530Y005650D01*
X002514Y005630D01*
X002494Y005612D01*
X002472Y005597D01*
X002449Y005585D01*
X002423Y005577D01*
X002397Y005573D01*
X002371Y005573D01*
X002345Y005577D01*
X002319Y005585D01*
X002295Y005597D01*
X002274Y005612D01*
X002254Y005630D01*
X002238Y005650D01*
X002225Y005673D01*
X002215Y005698D01*
X002209Y005724D01*
X002207Y005750D01*
X003939Y005750D02*
X003941Y005776D01*
X003947Y005802D01*
X003957Y005827D01*
X003970Y005850D01*
X003986Y005870D01*
X004006Y005888D01*
X004028Y005903D01*
X004051Y005915D01*
X004077Y005923D01*
X004103Y005927D01*
X004129Y005927D01*
X004155Y005923D01*
X004181Y005915D01*
X004205Y005903D01*
X004226Y005888D01*
X004246Y005870D01*
X004262Y005850D01*
X004275Y005827D01*
X004285Y005802D01*
X004291Y005776D01*
X004293Y005750D01*
X004291Y005724D01*
X004285Y005698D01*
X004275Y005673D01*
X004262Y005650D01*
X004246Y005630D01*
X004226Y005612D01*
X004204Y005597D01*
X004181Y005585D01*
X004155Y005577D01*
X004129Y005573D01*
X004103Y005573D01*
X004077Y005577D01*
X004051Y005585D01*
X004027Y005597D01*
X004006Y005612D01*
X003986Y005630D01*
X003970Y005650D01*
X003957Y005673D01*
X003947Y005698D01*
X003941Y005724D01*
X003939Y005750D01*
D11*
X004523Y002654D02*
X004523Y002347D01*
X004370Y002500D02*
X004677Y002500D01*
X002077Y002500D02*
X001770Y002500D01*
D12*
X001499Y001545D02*
X001364Y001545D01*
X001364Y001275D01*
X001499Y001275D01*
X001544Y001320D01*
X001544Y001365D01*
X001499Y001410D01*
X001364Y001410D01*
X001250Y001365D02*
X001250Y001320D01*
X001205Y001275D01*
X001115Y001275D01*
X001070Y001320D01*
X001115Y001410D02*
X001070Y001455D01*
X001070Y001500D01*
X001115Y001545D01*
X001205Y001545D01*
X001250Y001500D01*
X001205Y001410D02*
X001250Y001365D01*
X001205Y001410D02*
X001115Y001410D01*
X000955Y001320D02*
X000910Y001275D01*
X000820Y001275D01*
X000775Y001320D01*
X000775Y001545D01*
X000955Y001545D02*
X000955Y001320D01*
X001499Y001410D02*
X001544Y001455D01*
X001544Y001500D01*
X001499Y001545D01*
X001954Y001455D02*
X001954Y001185D01*
X001954Y001275D02*
X002089Y001275D01*
X002134Y001320D01*
X002134Y001410D01*
X002089Y001455D01*
X001954Y001455D01*
X002248Y001410D02*
X002248Y001320D01*
X002293Y001275D01*
X002383Y001275D01*
X002428Y001320D01*
X002428Y001410D01*
X002383Y001455D01*
X002293Y001455D01*
X002248Y001410D01*
X002543Y001455D02*
X002543Y001320D01*
X002588Y001275D01*
X002633Y001320D01*
X002678Y001275D01*
X002723Y001320D01*
X002723Y001455D01*
X002838Y001410D02*
X002838Y001320D01*
X002883Y001275D01*
X002973Y001275D01*
X003018Y001365D02*
X002838Y001365D01*
X002838Y001410D02*
X002883Y001455D01*
X002973Y001455D01*
X003018Y001410D01*
X003018Y001365D01*
X003132Y001365D02*
X003222Y001455D01*
X003267Y001455D01*
X003132Y001455D02*
X003132Y001275D01*
X003672Y001320D02*
X003717Y001365D01*
X003853Y001365D01*
X003853Y001410D02*
X003808Y001455D01*
X003717Y001455D01*
X003672Y001320D02*
X003717Y001275D01*
X003853Y001275D01*
X003853Y001410D01*
X003967Y001410D02*
X003967Y001320D01*
X004012Y001275D01*
X004147Y001275D01*
X004147Y001545D01*
X004147Y001455D02*
X004012Y001455D01*
X003967Y001410D01*
X004262Y001320D02*
X004307Y001365D01*
X004442Y001365D01*
X004442Y001410D02*
X004397Y001455D01*
X004307Y001455D01*
X004262Y001320D02*
X004307Y001275D01*
X004442Y001275D01*
X004442Y001410D01*
X004556Y001455D02*
X004691Y001455D01*
X004737Y001410D01*
X004737Y001320D01*
X004691Y001275D01*
X004556Y001275D01*
X004556Y001185D02*
X004556Y001455D01*
X004851Y001455D02*
X004941Y001455D01*
X004896Y001500D02*
X004896Y001320D01*
X004941Y001275D01*
X005047Y001320D02*
X005047Y001410D01*
X005092Y001455D01*
X005183Y001455D01*
X005228Y001410D01*
X005228Y001365D01*
X005047Y001365D01*
X005047Y001320D02*
X005092Y001275D01*
X005183Y001275D01*
X005342Y001275D02*
X005342Y001455D01*
X005342Y001365D02*
X005432Y001455D01*
X005477Y001455D01*
X004470Y004451D02*
X004077Y004451D01*
X004746Y005396D02*
X004746Y006341D01*
X004746Y007522D02*
X004746Y008073D01*
X001754Y008073D01*
X001754Y007522D01*
X001754Y006341D02*
X001754Y005356D01*
X002030Y004451D02*
X002423Y004451D01*
D13*
X003043Y000917D02*
X003043Y000880D01*
X003043Y000807D02*
X003007Y000807D01*
X003043Y000807D02*
X003043Y000660D01*
X003007Y000660D02*
X003080Y000660D01*
X003191Y000697D02*
X003227Y000660D01*
X003191Y000697D02*
X003191Y000843D01*
X003227Y000807D02*
X003154Y000807D01*
X003301Y000807D02*
X003301Y000697D01*
X003338Y000660D01*
X003448Y000660D01*
X003448Y000623D02*
X003411Y000587D01*
X003375Y000587D01*
X003448Y000623D02*
X003448Y000807D01*
X003522Y000770D02*
X003522Y000917D01*
X003522Y000697D02*
X003522Y000660D01*
X002933Y000807D02*
X002896Y000807D01*
X002823Y000733D01*
X002823Y000660D02*
X002823Y000807D01*
X002748Y000770D02*
X002748Y000660D01*
X002638Y000660D01*
X002602Y000697D01*
X002638Y000733D01*
X002748Y000733D01*
X002748Y000770D02*
X002712Y000807D01*
X002638Y000807D01*
X002528Y000660D02*
X002454Y000660D01*
X002491Y000660D02*
X002491Y000880D01*
X002454Y000880D01*
X002380Y000770D02*
X002343Y000807D01*
X002270Y000807D01*
X002233Y000770D01*
X002233Y000697D01*
X002270Y000660D01*
X002343Y000660D01*
X002380Y000697D01*
X002380Y000770D01*
X002159Y000770D02*
X002159Y000697D01*
X002122Y000660D01*
X002012Y000660D01*
X002012Y000587D02*
X002012Y000807D01*
X002122Y000807D01*
X002159Y000770D01*
X001717Y000770D02*
X001717Y000660D01*
X001717Y000770D02*
X001680Y000807D01*
X001607Y000807D01*
X001570Y000770D01*
X001496Y000807D02*
X001386Y000807D01*
X001349Y000770D01*
X001349Y000697D01*
X001386Y000660D01*
X001496Y000660D01*
X001570Y000660D02*
X001570Y000880D01*
X001275Y000807D02*
X001202Y000807D01*
X001239Y000843D02*
X001239Y000697D01*
X001275Y000660D01*
X001128Y000660D02*
X001018Y000660D01*
X000981Y000697D01*
X001018Y000733D01*
X001128Y000733D01*
X001128Y000770D02*
X001128Y000660D01*
X001128Y000770D02*
X001091Y000807D01*
X001018Y000807D01*
X000907Y000880D02*
X000907Y000660D01*
X000833Y000733D01*
X000760Y000660D01*
X000760Y000880D01*
D14*
X002250Y002250D02*
X002500Y002000D01*
X003000Y002000D01*
X003250Y002250D01*
X003500Y002000D01*
X004000Y002000D01*
X004250Y002250D01*
X004250Y002750D01*
X004000Y003000D01*
X003500Y003000D01*
X003250Y002750D01*
X003000Y003000D01*
X002500Y003000D01*
X002250Y002750D01*
X002250Y002250D01*
D15*
X002750Y002500D03*
X003750Y002500D03*
M02*
