G75*
G70*
%OFA0B0*%
%FSLAX24Y24*%
%IPPOS*%
%LPD*%
%AMOC8*
5,1,8,0,0,1.08239X$1,22.5*
%
%ADD10C,0.0000*%
%ADD11C,0.0080*%
%ADD12C,0.0050*%
%ADD13C,0.0040*%
%ADD14R,0.0200X0.0200*%
D10*
X000250Y000250D02*
X000250Y008096D01*
X005320Y008096D01*
X005320Y000250D01*
X000250Y000250D01*
D11*
X000890Y000860D02*
X000960Y000930D01*
X001170Y000930D01*
X001170Y001000D02*
X001170Y000790D01*
X000960Y000790D01*
X000890Y000860D01*
X000960Y001070D02*
X001100Y001070D01*
X001170Y001000D01*
X001350Y001000D02*
X001350Y000860D01*
X001420Y000790D01*
X001631Y000790D01*
X001631Y001210D01*
X001631Y001070D02*
X001420Y001070D01*
X001350Y001000D01*
X001420Y001390D02*
X001350Y001460D01*
X001350Y001740D01*
X001420Y001810D01*
X001561Y001810D01*
X001631Y001740D01*
X001631Y001460D02*
X001561Y001390D01*
X001420Y001390D01*
X001170Y001460D02*
X001170Y001740D01*
X001100Y001810D01*
X000890Y001810D01*
X000890Y001390D01*
X001100Y001390D01*
X001170Y001460D01*
X001900Y002100D02*
X001650Y002350D01*
X001650Y002850D01*
X001900Y003100D01*
X002400Y003100D01*
X002650Y002850D01*
X002900Y003100D01*
X003400Y003100D01*
X003650Y002850D01*
X003650Y002350D01*
X003400Y002100D01*
X002900Y002100D01*
X002650Y002350D01*
X002400Y002100D01*
X001900Y002100D01*
X002271Y001670D02*
X002481Y001670D01*
X002551Y001600D01*
X002551Y001460D01*
X002481Y001390D01*
X002271Y001390D01*
X002271Y001250D02*
X002271Y001670D01*
X002271Y001070D02*
X002481Y001070D01*
X002551Y001000D01*
X002551Y000860D01*
X002481Y000790D01*
X002271Y000790D01*
X002271Y000650D02*
X002271Y001070D01*
X002091Y001000D02*
X002091Y000790D01*
X001881Y000790D01*
X001811Y000860D01*
X001881Y000930D01*
X002091Y000930D01*
X002091Y001000D02*
X002021Y001070D01*
X001881Y001070D01*
X002732Y001070D02*
X002872Y001070D01*
X002802Y001140D02*
X002802Y000860D01*
X002872Y000790D01*
X003038Y000860D02*
X003038Y001000D01*
X003109Y001070D01*
X003249Y001070D01*
X003319Y001000D01*
X003319Y000930D01*
X003038Y000930D01*
X003038Y000860D02*
X003109Y000790D01*
X003249Y000790D01*
X003499Y000790D02*
X003499Y001070D01*
X003499Y000930D02*
X003639Y001070D01*
X003709Y001070D01*
X003722Y001390D02*
X003652Y001460D01*
X003652Y001600D01*
X003722Y001670D01*
X003863Y001670D01*
X003933Y001600D01*
X003933Y001530D01*
X003652Y001530D01*
X003722Y001390D02*
X003863Y001390D01*
X004113Y001390D02*
X004113Y001670D01*
X004113Y001530D02*
X004253Y001670D01*
X004323Y001670D01*
X003472Y001670D02*
X003472Y001460D01*
X003402Y001390D01*
X003332Y001460D01*
X003262Y001390D01*
X003192Y001460D01*
X003192Y001670D01*
X003012Y001600D02*
X003012Y001460D01*
X002942Y001390D01*
X002802Y001390D01*
X002732Y001460D01*
X002732Y001600D01*
X002802Y001670D01*
X002942Y001670D01*
X003012Y001600D01*
X002305Y004556D02*
X001478Y004556D01*
X001478Y004832D01*
X001478Y006682D02*
X001478Y008769D01*
X005022Y008769D01*
X005022Y004556D01*
X004195Y004556D01*
X005022Y008769D02*
X005022Y009911D01*
X001478Y009911D01*
X001478Y008769D01*
D12*
X004071Y002824D02*
X004071Y002417D01*
X003867Y002620D02*
X004274Y002620D01*
D13*
X001417Y002600D02*
X001110Y002600D01*
D14*
X002150Y002600D03*
X003150Y002600D03*
M02*
